<?xml version="1.0" encoding="UTF-8" standalone="no"?><!DOCTYPE svg PUBLIC "-//W3C//DTD SVG 1.1//EN" "http://www.w3.org/Graphics/SVG/1.1/DTD/svg11.dtd"><svg width="100%" height="100%" viewBox="0 0 247 127" version="1.1" xmlns="http://www.w3.org/2000/svg" xmlns:xlink="http://www.w3.org/1999/xlink" xml:space="preserve" xmlns:serif="http://www.serif.com/" style="fill-rule:evenodd;clip-rule:evenodd;stroke-linejoin:round;stroke-miterlimit:2;"><g><path d="M124.048,38.949c-0,5.022 -0.987,9.573 -2.959,13.653c-1.973,4.08 -4.865,7.554 -8.676,10.424c-3.811,2.869 -8.451,5.111 -13.921,6.725c-5.47,1.614 -11.702,2.421 -18.696,2.421l-47.077,-0l0,23l-27.708,0l0,-46l77.475,-0c4.304,-0 7.644,-0.942 10.02,-2.825c2.377,-1.883 3.565,-4.394 3.565,-7.532c-0,-3.139 -1.188,-5.627 -3.565,-7.465c-2.376,-1.838 -5.716,-2.758 -10.02,-2.758l-77.475,0l18.427,-23.403l56.492,-0c6.994,-0 13.226,0.829 18.696,2.488c5.47,1.659 10.088,3.968 13.854,6.927c3.766,2.959 6.636,6.501 8.609,10.626c1.972,4.125 2.959,8.698 2.959,13.719Z" style="fill:#1000d6;fill-rule:nonzero;"/><path d="M228.871,99.504c-1.92,0 -3.816,-0.312 -5.688,-0.936c-1.872,-0.624 -3.96,-2.04 -6.264,-4.248l-59.04,-52.992l0,56.592l-27.072,0l0,-79.92c0,-3.168 0.456,-5.904 1.368,-8.208c0.912,-2.304 2.112,-4.176 3.6,-5.616c1.488,-1.44 3.216,-2.496 5.184,-3.168c1.968,-0.672 4.008,-1.008 6.12,-1.008c1.824,0 3.672,0.312 5.544,0.936c1.872,0.624 4.008,2.04 6.408,4.248l59.04,52.992l0,-56.592l27.216,0l0,79.776c0,3.168 -0.456,5.904 -1.368,8.208c-0.912,2.304 -2.112,4.2 -3.6,5.688c-1.488,1.488 -3.24,2.568 -5.256,3.24c-2.016,0.672 -4.08,1.008 -6.192,1.008Z" style="fill:#1000d6;fill-rule:nonzero;"/><path d="M132.306,97.925l-20.112,0c-2.528,0 -4.632,-0.24 -6.312,-0.72c-1.68,-0.48 -3.016,-1.136 -4.008,-1.968c-0.992,-0.832 -1.688,-1.816 -2.088,-2.952c-0.4,-1.136 -0.6,-2.376 -0.6,-3.72c-0,-1.92 0.48,-3.488 1.44,-4.704c0.96,-1.216 2.16,-2.032 3.6,-2.448c-0.576,-0.192 -1.128,-0.472 -1.656,-0.84c-0.528,-0.368 -0.992,-0.832 -1.392,-1.392c-0.4,-0.56 -0.728,-1.208 -0.984,-1.944c-0.256,-0.736 -0.384,-1.584 -0.384,-2.544c-0,-1.472 0.296,-2.76 0.888,-3.864c0.592,-1.104 1.44,-2.032 2.544,-2.784c1.104,-0.752 2.432,-1.312 3.984,-1.68c1.552,-0.368 3.288,-0.552 5.208,-0.552l13.44,0l-6.384,8.352l-7.488,0c-0.704,0 -1.336,0.144 -1.896,0.432c-0.56,0.288 -0.84,0.832 -0.84,1.632c-0,0.832 0.272,1.4 0.816,1.704c0.544,0.304 1.184,0.456 1.92,0.456l26.064,0l-5.136,6.864l-5.28,0l-0,4.416l10.992,0l-6.336,8.256Zm-23.232,-10.512c-0,1.504 1.024,2.256 3.072,2.256l7.488,0l-0,-4.416l-7.488,0c-2.048,0 -3.072,0.72 -3.072,2.16Z" style="fill:#d60e00;fill-rule:nonzero;"/><path d="M32.184,101.664l-4.824,6.264l-8.604,0l0,17.82l-7.452,0l0,-17.82l-11.304,0l4.824,-6.264l27.36,0Z" style="fill:#d60e00;fill-rule:nonzero;"/><path d="M66.204,125.748l-9.972,0l-5.364,-6.372l-11.448,0l-0,6.372l-7.452,0l-0,-12.312l20.952,0c1.152,0 2.124,-0.24 2.916,-0.72c0.792,-0.48 1.188,-1.14 1.188,-1.98c-0,-0.936 -0.36,-1.638 -1.08,-2.106c-0.72,-0.468 -1.728,-0.702 -3.024,-0.702l-20.952,0l4.86,-6.264l15.48,0c1.368,0 2.784,0.126 4.248,0.378c1.464,0.252 2.796,0.702 3.996,1.35c1.2,0.648 2.19,1.524 2.97,2.628c0.78,1.104 1.17,2.52 1.17,4.248c-0,0.936 -0.144,1.824 -0.432,2.664c-0.288,0.84 -0.702,1.596 -1.242,2.268c-0.54,0.672 -1.2,1.242 -1.98,1.71c-0.78,0.468 -1.662,0.798 -2.646,0.99c0.408,0.312 0.864,0.708 1.368,1.188c0.504,0.48 1.176,1.14 2.016,1.98l4.428,4.68Z" style="fill:#d60e00;fill-rule:nonzero;"/><path d="M100.152,115.236c-0,7.272 -5.004,10.908 -15.012,10.908c-2.904,0 -5.4,-0.228 -7.488,-0.684c-2.088,-0.456 -3.81,-1.14 -5.166,-2.052c-1.356,-0.912 -2.352,-2.046 -2.988,-3.402c-0.636,-1.356 -0.954,-2.946 -0.954,-4.77l-0,-13.572l7.416,0l-0,13.572c-0,0.888 0.12,1.632 0.36,2.232c0.24,0.6 0.69,1.086 1.35,1.458c0.66,0.372 1.59,0.636 2.79,0.792c1.2,0.156 2.76,0.234 4.68,0.234c1.44,0 2.64,-0.084 3.6,-0.252c0.96,-0.168 1.728,-0.444 2.304,-0.828c0.576,-0.384 0.99,-0.876 1.242,-1.476c0.252,-0.6 0.378,-1.32 0.378,-2.16l-0,-13.572l7.488,0l-0,13.572Z" style="fill:#d60e00;fill-rule:nonzero;"/><path d="M135,119.556l-4.788,6.192l-12.096,0c-2.088,0 -4.02,-0.312 -5.796,-0.936c-1.776,-0.624 -3.306,-1.482 -4.59,-2.574c-1.284,-1.092 -2.292,-2.388 -3.024,-3.888c-0.732,-1.5 -1.098,-3.126 -1.098,-4.878c-0,-1.752 0.366,-3.354 1.098,-4.806c0.732,-1.452 1.74,-2.7 3.024,-3.744c1.284,-1.044 2.814,-1.848 4.59,-2.412c1.776,-0.564 3.708,-0.846 5.796,-0.846l16.884,0l-4.788,6.264l-12.096,0c-1.008,0 -1.944,0.144 -2.808,0.432c-0.864,0.288 -1.608,0.69 -2.232,1.206c-0.624,0.516 -1.116,1.134 -1.476,1.854c-0.36,0.72 -0.54,1.512 -0.54,2.376c-0,0.864 0.174,1.65 0.522,2.358c0.348,0.708 0.84,1.314 1.476,1.818c0.636,0.504 1.386,0.894 2.25,1.17c0.864,0.276 1.8,0.414 2.808,0.414l16.884,0Z" style="fill:#d60e00;fill-rule:nonzero;"/><path d="M167.976,125.748l-11.268,0l-7.272,-6.336c-1.248,-1.08 -2.202,-1.92 -2.862,-2.52c-0.66,-0.6 -1.194,-1.104 -1.602,-1.512c0.024,0.552 0.048,1.122 0.072,1.71c0.024,0.588 0.036,1.17 0.036,1.746l-0,6.912l-7.488,0l-0,-24.084l7.488,0l-0,5.58c-0,0.744 -0.012,1.476 -0.036,2.196c-0.024,0.72 -0.06,1.392 -0.108,2.016c0.48,-0.432 1.062,-0.966 1.746,-1.602c0.684,-0.636 1.578,-1.41 2.682,-2.322l6.948,-5.868l10.8,0l-9.216,6.912c-0.792,0.6 -1.494,1.128 -2.106,1.584c-0.612,0.456 -1.158,0.852 -1.638,1.188c-0.48,0.336 -0.918,0.636 -1.314,0.9c-0.396,0.264 -0.786,0.516 -1.17,0.756c0.696,0.48 1.536,1.08 2.52,1.8c0.984,0.72 2.256,1.716 3.816,2.988l9.972,7.956Z" style="fill:#d60e00;fill-rule:nonzero;"/><rect x="170.532" y="101.664" width="7.452" height="24.084" style="fill:#d60e00;fill-rule:nonzero;"/><path d="M207.036,126.144c-0.48,0 -0.954,-0.078 -1.422,-0.234c-0.468,-0.156 -0.99,-0.51 -1.566,-1.062l-14.76,-13.248l-0,14.148l-6.768,0l-0,-19.98c-0,-0.792 0.114,-1.476 0.342,-2.052c0.228,-0.576 0.528,-1.044 0.9,-1.404c0.372,-0.36 0.804,-0.624 1.296,-0.792c0.492,-0.168 1.002,-0.252 1.53,-0.252c0.456,0 0.918,0.078 1.386,0.234c0.468,0.156 1.002,0.51 1.602,1.062l14.76,13.248l-0,-14.148l6.804,0l-0,19.944c-0,0.792 -0.114,1.476 -0.342,2.052c-0.228,0.576 -0.528,1.05 -0.9,1.422c-0.372,0.372 -0.81,0.642 -1.314,0.81c-0.504,0.168 -1.02,0.252 -1.548,0.252Z" style="fill:#d60e00;fill-rule:nonzero;"/><path d="M230.4,110.7l15.408,0l-0,15.048l-16.524,0c-2.088,0 -4.02,-0.312 -5.796,-0.936c-1.776,-0.624 -3.306,-1.482 -4.59,-2.574c-1.284,-1.092 -2.292,-2.388 -3.024,-3.888c-0.732,-1.5 -1.098,-3.126 -1.098,-4.878c-0,-1.752 0.366,-3.354 1.098,-4.806c0.732,-1.452 1.74,-2.7 3.024,-3.744c1.284,-1.044 2.814,-1.848 4.59,-2.412c1.776,-0.564 3.708,-0.846 5.796,-0.846l17.244,0l-4.824,6.264l-12.42,0c-1.008,0 -1.944,0.144 -2.808,0.432c-0.864,0.288 -1.614,0.696 -2.25,1.224c-0.636,0.528 -1.134,1.146 -1.494,1.854c-0.36,0.708 -0.54,1.494 -0.54,2.358c-0,0.864 0.174,1.65 0.522,2.358c0.348,0.708 0.84,1.314 1.476,1.818c0.636,0.504 1.386,0.894 2.25,1.17c0.864,0.276 1.812,0.414 2.844,0.414l9.108,0l-0,-3.492l-12.456,0l4.464,-5.364Z" style="fill:#d60e00;fill-rule:nonzero;"/></g></svg>